G75*
%MOIN*%
%OFA0B0*%
%FSLAX25Y25*%
%IPPOS*%
%LPD*%
%AMOC8*
5,1,8,0,0,1.08239X$1,22.5*
%
%ADD10OC8,0.07500*%
%ADD11C,0.05200*%
%ADD12C,0.06000*%
%ADD13C,0.06600*%
%ADD14OC8,0.05600*%
%ADD15C,0.03200*%
D10*
X0116000Y0106000D03*
X0146000Y0106000D03*
D11*
X0066000Y0191000D03*
X0066000Y0201000D03*
X0066000Y0211000D03*
X0066000Y0221000D03*
X0036000Y0221000D03*
X0036000Y0211000D03*
X0036000Y0201000D03*
X0036000Y0191000D03*
D12*
X0036000Y0044000D02*
X0036000Y0038000D01*
X0046000Y0038000D02*
X0046000Y0044000D01*
X0056000Y0044000D02*
X0056000Y0038000D01*
X0168000Y0066000D02*
X0174000Y0066000D01*
X0174000Y0076000D02*
X0168000Y0076000D01*
D13*
X0141000Y0142700D02*
X0141000Y0149300D01*
X0131000Y0149300D02*
X0131000Y0142700D01*
X0121000Y0142700D02*
X0121000Y0149300D01*
D14*
X0096000Y0131000D03*
X0096000Y0106000D03*
X0096000Y0081000D03*
X0036000Y0081000D03*
X0036000Y0106000D03*
X0036000Y0131000D03*
D15*
X0013500Y0051000D02*
X0033500Y0031000D01*
X0038500Y0031000D01*
X0046000Y0038500D01*
X0046000Y0041000D01*
X0036000Y0041000D02*
X0018500Y0058500D01*
X0018500Y0183500D01*
X0036000Y0201000D01*
X0041000Y0206000D02*
X0041000Y0183500D01*
X0028500Y0171000D01*
X0028500Y0113500D01*
X0036000Y0106000D01*
X0036000Y0081000D01*
X0023500Y0076000D02*
X0056000Y0043500D01*
X0056000Y0041000D01*
X0096000Y0081000D01*
X0118500Y0058500D01*
X0176000Y0058500D01*
X0181000Y0063500D01*
X0181000Y0068500D01*
X0173500Y0076000D01*
X0171000Y0076000D01*
X0171000Y0081000D01*
X0146000Y0106000D01*
X0141000Y0131000D02*
X0116000Y0106000D01*
X0156000Y0066000D01*
X0171000Y0066000D01*
X0141000Y0131000D02*
X0141000Y0146000D01*
X0131000Y0146000D02*
X0131000Y0148500D01*
X0123500Y0156000D01*
X0121000Y0156000D01*
X0066000Y0211000D01*
X0061000Y0216000D01*
X0033500Y0216000D01*
X0013500Y0196000D01*
X0013500Y0051000D01*
X0023500Y0076000D02*
X0023500Y0173500D01*
X0036000Y0186000D01*
X0036000Y0191000D01*
X0041000Y0206000D02*
X0036000Y0211000D01*
X0066000Y0201000D02*
X0036000Y0171000D01*
X0036000Y0131000D01*
X0096000Y0131000D02*
X0106000Y0131000D01*
X0121000Y0146000D01*
X0116000Y0106000D02*
X0096000Y0106000D01*
M02*
