%
M48
M72
T01C0.03200
T02C0.03600
T03C0.04000
T04C0.04400
T05C0.13000
%
T01
X36000Y191000
X36000Y201000
X36000Y211000
X36000Y221000
X66000Y221000
X66000Y211000
X66000Y201000
X66000Y191000
T02
X36000Y131000
X36000Y106000
X36000Y81000
X96000Y81000
X96000Y106000
X96000Y131000
X116000Y106000
X146000Y106000
T03
X36000Y41000
X46000Y41000
X56000Y41000
X171000Y66000
X171000Y76000
T04
X141000Y146000
X131000Y146000
X121000Y146000
T05
X131000Y215000
M30
