G75*
%MOIN*%
%OFA0B0*%
%FSLAX25Y25*%
%IPPOS*%
%LPD*%
%AMOC8*
5,1,8,0,0,1.08239X$1,22.5*
%
%ADD10C,0.00600*%
%ADD11OC8,0.07500*%
%ADD12C,0.05200*%
%ADD13C,0.06000*%
%ADD14C,0.06600*%
%ADD15OC8,0.05600*%
D10*
X0026300Y0021300D02*
X0028435Y0021300D01*
X0027368Y0021300D02*
X0027368Y0027705D01*
X0028435Y0027705D02*
X0026300Y0027705D01*
X0030597Y0025570D02*
X0030597Y0021300D01*
X0030597Y0025570D02*
X0033800Y0025570D01*
X0034867Y0024503D01*
X0034867Y0021300D01*
X0043488Y0021300D02*
X0043488Y0027705D01*
X0046691Y0027705D01*
X0047758Y0026638D01*
X0047758Y0024503D01*
X0046691Y0023435D01*
X0043488Y0023435D01*
X0049933Y0022368D02*
X0051001Y0021300D01*
X0052069Y0022368D01*
X0053136Y0021300D01*
X0054204Y0022368D01*
X0054204Y0025570D01*
X0056379Y0025570D02*
X0056379Y0021300D01*
X0056379Y0023435D02*
X0058514Y0025570D01*
X0059582Y0025570D01*
X0068196Y0026638D02*
X0068196Y0022368D01*
X0069263Y0021300D01*
X0071398Y0021300D01*
X0072466Y0022368D01*
X0072466Y0024503D01*
X0070331Y0024503D01*
X0072466Y0026638D02*
X0071398Y0027705D01*
X0069263Y0027705D01*
X0068196Y0026638D01*
X0074641Y0025570D02*
X0074641Y0021300D01*
X0074641Y0025570D02*
X0077844Y0025570D01*
X0078912Y0024503D01*
X0078912Y0021300D01*
X0081087Y0022368D02*
X0081087Y0024503D01*
X0082154Y0025570D01*
X0085357Y0025570D01*
X0085357Y0027705D02*
X0085357Y0021300D01*
X0082154Y0021300D01*
X0081087Y0022368D01*
X0049933Y0022368D02*
X0049933Y0025570D01*
X0169295Y0046300D02*
X0169295Y0050570D01*
X0169295Y0048435D02*
X0175700Y0048435D01*
X0175700Y0052745D02*
X0175700Y0057016D01*
X0175700Y0054881D02*
X0169295Y0054881D01*
X0171430Y0052745D01*
X0169295Y0117200D02*
X0169295Y0121471D01*
X0169295Y0119336D02*
X0175700Y0119336D01*
X0175700Y0123646D02*
X0171430Y0127916D01*
X0170362Y0127916D01*
X0169295Y0126849D01*
X0169295Y0124714D01*
X0170362Y0123646D01*
X0175700Y0123646D02*
X0175700Y0127916D01*
D11*
X0146000Y0106000D03*
X0116000Y0106000D03*
D12*
X0066000Y0191000D03*
X0066000Y0201000D03*
X0066000Y0211000D03*
X0066000Y0221000D03*
X0036000Y0221000D03*
X0036000Y0211000D03*
X0036000Y0201000D03*
X0036000Y0191000D03*
D13*
X0036000Y0044000D02*
X0036000Y0038000D01*
X0046000Y0038000D02*
X0046000Y0044000D01*
X0056000Y0044000D02*
X0056000Y0038000D01*
X0168000Y0066000D02*
X0174000Y0066000D01*
X0174000Y0076000D02*
X0168000Y0076000D01*
D14*
X0141000Y0142700D02*
X0141000Y0149300D01*
X0131000Y0149300D02*
X0131000Y0142700D01*
X0121000Y0142700D02*
X0121000Y0149300D01*
D15*
X0096000Y0131000D03*
X0096000Y0106000D03*
X0096000Y0081000D03*
X0036000Y0081000D03*
X0036000Y0106000D03*
X0036000Y0131000D03*
M02*
